<svg id="visual" viewBox="0 0 1920 400" width="1920" height="400" xmlns="http://www.w3.org/2000/svg" xmlns:xlink="http://www.w3.org/1999/xlink" version="1.1"><rect x="0" y="0" width="1920" height="400" fill="#232322"></rect><path d="M0 254L17.8 258C35.7 262 71.3 270 106.8 265.2C142.3 260.3 177.7 242.7 213.2 235.3C248.7 228 284.3 231 320 227.2C355.7 223.3 391.3 212.7 426.8 209.2C462.3 205.7 497.7 209.3 533.2 217.3C568.7 225.3 604.3 237.7 640 239.5C675.7 241.3 711.3 232.7 746.8 232.8C782.3 233 817.7 242 853.2 246.3C888.7 250.7 924.3 250.3 960 245.5C995.7 240.7 1031.3 231.3 1066.8 224C1102.3 216.7 1137.7 211.3 1173.2 213.8C1208.7 216.3 1244.3 226.7 1280 231.5C1315.7 236.3 1351.3 235.7 1386.8 235.7C1422.3 235.7 1457.7 236.3 1493.2 235.3C1528.7 234.3 1564.3 231.7 1600 237C1635.7 242.3 1671.3 255.7 1706.8 263.7C1742.3 271.7 1777.7 274.3 1813.2 272.7C1848.7 271 1884.3 265 1902.2 262L1920 259L1920 401L1902.2 401C1884.3 401 1848.7 401 1813.2 401C1777.7 401 1742.3 401 1706.8 401C1671.3 401 1635.7 401 1600 401C1564.3 401 1528.7 401 1493.2 401C1457.7 401 1422.3 401 1386.8 401C1351.3 401 1315.7 401 1280 401C1244.3 401 1208.7 401 1173.2 401C1137.7 401 1102.3 401 1066.8 401C1031.3 401 995.7 401 960 401C924.3 401 888.7 401 853.2 401C817.7 401 782.3 401 746.8 401C711.3 401 675.7 401 640 401C604.3 401 568.7 401 533.2 401C497.7 401 462.3 401 426.8 401C391.3 401 355.7 401 320 401C284.3 401 248.7 401 213.2 401C177.7 401 142.3 401 106.8 401C71.3 401 35.7 401 17.8 401L0 401Z" fill="#903de8"></path><path d="M0 255L17.8 261.8C35.7 268.7 71.3 282.3 106.8 284.7C142.3 287 177.7 278 213.2 269.8C248.7 261.7 284.3 254.3 320 248.8C355.7 243.3 391.3 239.7 426.8 239.2C462.3 238.7 497.7 241.3 533.2 242.7C568.7 244 604.3 244 640 244.7C675.7 245.3 711.3 246.7 746.8 253.2C782.3 259.7 817.7 271.3 853.2 270.7C888.7 270 924.3 257 960 257.5C995.7 258 1031.3 272 1066.8 281C1102.3 290 1137.7 294 1173.2 290C1208.7 286 1244.3 274 1280 272.3C1315.7 270.7 1351.3 279.3 1386.8 284.7C1422.3 290 1457.7 292 1493.2 290.5C1528.7 289 1564.3 284 1600 284.2C1635.7 284.3 1671.3 289.7 1706.8 289.3C1742.3 289 1777.7 283 1813.2 278C1848.7 273 1884.3 269 1902.2 267L1920 265L1920 401L1902.2 401C1884.3 401 1848.7 401 1813.2 401C1777.7 401 1742.3 401 1706.8 401C1671.3 401 1635.7 401 1600 401C1564.3 401 1528.7 401 1493.2 401C1457.7 401 1422.3 401 1386.8 401C1351.3 401 1315.7 401 1280 401C1244.3 401 1208.7 401 1173.2 401C1137.7 401 1102.3 401 1066.8 401C1031.3 401 995.7 401 960 401C924.3 401 888.7 401 853.2 401C817.7 401 782.3 401 746.8 401C711.3 401 675.7 401 640 401C604.3 401 568.7 401 533.2 401C497.7 401 462.3 401 426.8 401C391.3 401 355.7 401 320 401C284.3 401 248.7 401 213.2 401C177.7 401 142.3 401 106.8 401C71.3 401 35.7 401 17.8 401L0 401Z" fill="#8b36de"></path><path d="M0 308L17.8 304.3C35.7 300.7 71.3 293.3 106.8 292.8C142.3 292.3 177.7 298.7 213.2 304.8C248.7 311 284.3 317 320 318.7C355.7 320.3 391.3 317.7 426.8 309.3C462.3 301 497.7 287 533.2 287.7C568.7 288.3 604.3 303.7 640 311.5C675.7 319.3 711.3 319.7 746.8 318.7C782.3 317.7 817.7 315.3 853.2 307.8C888.7 300.3 924.3 287.7 960 282.3C995.7 277 1031.3 279 1066.8 286C1102.3 293 1137.7 305 1173.2 306C1208.7 307 1244.3 297 1280 290.7C1315.7 284.3 1351.3 281.7 1386.8 283.7C1422.3 285.7 1457.7 292.3 1493.2 300C1528.7 307.7 1564.3 316.3 1600 313.5C1635.7 310.7 1671.3 296.3 1706.8 289.5C1742.3 282.7 1777.7 283.3 1813.2 283.8C1848.7 284.3 1884.3 284.7 1902.2 284.8L1920 285L1920 401L1902.2 401C1884.3 401 1848.7 401 1813.2 401C1777.7 401 1742.3 401 1706.8 401C1671.3 401 1635.7 401 1600 401C1564.3 401 1528.7 401 1493.2 401C1457.7 401 1422.3 401 1386.8 401C1351.3 401 1315.7 401 1280 401C1244.3 401 1208.7 401 1173.2 401C1137.7 401 1102.3 401 1066.8 401C1031.3 401 995.7 401 960 401C924.3 401 888.7 401 853.2 401C817.7 401 782.3 401 746.8 401C711.3 401 675.7 401 640 401C604.3 401 568.7 401 533.2 401C497.7 401 462.3 401 426.8 401C391.3 401 355.7 401 320 401C284.3 401 248.7 401 213.2 401C177.7 401 142.3 401 106.8 401C71.3 401 35.7 401 17.8 401L0 401Z" fill="#852ed4"></path><path d="M0 320L17.8 321C35.7 322 71.3 324 106.8 323.5C142.3 323 177.7 320 213.2 319.5C248.7 319 284.3 321 320 319C355.7 317 391.3 311 426.8 308.2C462.3 305.3 497.7 305.7 533.2 306C568.7 306.3 604.3 306.7 640 310.2C675.7 313.7 711.3 320.3 746.8 326C782.3 331.7 817.7 336.3 853.2 337.2C888.7 338 924.3 335 960 332.5C995.7 330 1031.3 328 1066.8 327.3C1102.3 326.7 1137.7 327.3 1173.2 327.7C1208.7 328 1244.3 328 1280 330.2C1315.7 332.3 1351.3 336.7 1386.8 338C1422.3 339.3 1457.7 337.7 1493.2 337.5C1528.7 337.3 1564.3 338.7 1600 340.2C1635.7 341.7 1671.3 343.3 1706.8 340.8C1742.3 338.3 1777.7 331.7 1813.2 330.8C1848.7 330 1884.3 335 1902.2 337.5L1920 340L1920 401L1902.2 401C1884.3 401 1848.7 401 1813.2 401C1777.7 401 1742.3 401 1706.8 401C1671.3 401 1635.7 401 1600 401C1564.3 401 1528.7 401 1493.2 401C1457.7 401 1422.3 401 1386.8 401C1351.3 401 1315.7 401 1280 401C1244.3 401 1208.7 401 1173.2 401C1137.7 401 1102.3 401 1066.8 401C1031.3 401 995.7 401 960 401C924.3 401 888.7 401 853.2 401C817.7 401 782.3 401 746.8 401C711.3 401 675.7 401 640 401C604.3 401 568.7 401 533.2 401C497.7 401 462.3 401 426.8 401C391.3 401 355.7 401 320 401C284.3 401 248.7 401 213.2 401C177.7 401 142.3 401 106.8 401C71.3 401 35.7 401 17.8 401L0 401Z" fill="#8026ca"></path><path d="M0 366L17.8 367.5C35.7 369 71.3 372 106.8 369.5C142.3 367 177.7 359 213.2 355.7C248.7 352.3 284.3 353.7 320 353.2C355.7 352.7 391.3 350.3 426.8 350.5C462.3 350.7 497.7 353.3 533.2 353C568.7 352.7 604.3 349.3 640 351.3C675.7 353.3 711.3 360.7 746.8 365C782.3 369.3 817.7 370.7 853.2 371.5C888.7 372.3 924.3 372.7 960 373.3C995.7 374 1031.3 375 1066.8 374.8C1102.3 374.7 1137.7 373.3 1173.2 367.5C1208.7 361.7 1244.3 351.3 1280 348.2C1315.7 345 1351.3 349 1386.8 351.7C1422.3 354.3 1457.7 355.7 1493.2 356.5C1528.7 357.3 1564.3 357.7 1600 356.2C1635.7 354.7 1671.3 351.3 1706.8 353C1742.3 354.7 1777.7 361.3 1813.2 360.7C1848.7 360 1884.3 352 1902.2 348L1920 344L1920 401L1902.2 401C1884.3 401 1848.7 401 1813.2 401C1777.7 401 1742.3 401 1706.8 401C1671.3 401 1635.7 401 1600 401C1564.3 401 1528.7 401 1493.2 401C1457.7 401 1422.3 401 1386.8 401C1351.3 401 1315.7 401 1280 401C1244.3 401 1208.7 401 1173.2 401C1137.7 401 1102.3 401 1066.8 401C1031.3 401 995.7 401 960 401C924.3 401 888.7 401 853.2 401C817.7 401 782.3 401 746.8 401C711.3 401 675.7 401 640 401C604.3 401 568.7 401 533.2 401C497.7 401 462.3 401 426.8 401C391.3 401 355.7 401 320 401C284.3 401 248.7 401 213.2 401C177.7 401 142.3 401 106.8 401C71.3 401 35.7 401 17.8 401L0 401Z" fill="#7a1ec1"></path></svg>